<svg width="367" height="427" viewBox="0 0 367 427" fill="none" xmlns="http://www.w3.org/2000/svg">
  <g fill="#643322">
    <path fill-rule="evenodd" clip-rule="evenodd" d="M171.8 368.2c-30-3.6-55.5-15.7-76.4-37.3a123.5 123.5 0 0 1-34.8-77.6l-9.6-1.5-46.5-6.9c-.9 0-1.8-.2-2.7-.6-.5-.2-1.3-.8-1.2-1.2 0-.6.6-1.4 1.1-1.7 1-.4 2-.7 3-.8l53.7-8.5 2.6-.5a123.6 123.6 0 0 1 36.5-75.5c21-20.7 46.4-32.2 75.9-35.3l1.6-10.3 6.3-43c.3-1.7.5-3.4.9-5 .1-1 .3-2 1.5-2 1.3-.1 1.7 1 2 2 .3 1 .5 2.1.6 3.2l8.5 53.9.3 1c29.8 3 55.9 14.7 77.2 36a123.5 123.5 0 0 1 36.2 77.3l6.3 1 48 7.2c1.4.2 3.6 0 3.4 2 0 1.8-2 1.9-3.5 2l-20.7 3.4-33.4 5.2c-3 30.5-15 57-36.9 78.4a123.6 123.6 0 0 1-79 35.5l-1.9 12.5-6.1 41.4c-.2 1-.3 1.9-.7 2.7-.5 1.3-1.9 1.4-2.5.2-.6-1-.9-2-1-3.2l-3.1-19.3-5.2-33.1c0-.5-.2-.9-.4-1.6Zm12 38.2.4.1 1.5-9.8 8.8-57.8 8.6-56.6c.7-4.5 1-9 1.7-13.5.2-1.3-.4-2-1.2-2.9l-18.2-18.5-1.6-1.2v160.2Zm-1.1-326.2h-.3l-.5 2.1c-1 7.7-2.1 15.3-3.3 23L167 180c-2 12.3-3.7 24.7-5.5 37-.2 1.3 0 2.3 1 3.2l19 19.4 1 .7V80.2ZM19.7 244v.3l13.5 2 46.9 7.1 48.8 7.6 27.4 4c2 .4 3.4 0 5-1.6l18-17.9c.4-.4.7-.9 1-1.5H19.8Zm326.1-1.2v-.4l-1.2-.2-65.4-10-69.4-10.5c-1.5-.2-2.6.2-3.7 1.3l-18.5 18.2-1.2 1.6h159.4Zm-148.2 94.6a94.3 94.3 0 0 0 52-25.4l-18.2-15.6c-5 3.2-9.4 6.6-14.3 9.2-4.9 2.6-10.2 4.4-15.6 6.7l-3.9 25.1ZM277.1 229a94.3 94.3 0 0 0-25.8-50.6L234.8 197l.8 1a67.5 67.5 0 0 1 14.7 25.2c.5 1.6 1.5 2 3 2.3l17.4 2.7 6.4.9ZM133 290.3a70.7 70.7 0 0 1-15-28l-26.2-4.1a94.4 94.4 0 0 0 24.5 50.6l16.7-18.5Zm144.3-30.8-3 .3c-6.6 1-13.3 2.1-20 3-2.1.2-3 1-3.7 3-2.7 8.6-7 16.4-12.8 23.3l-1.2 1.6 16.3 18.2c13-14.2 21-30.3 24.4-49.4ZM168.5 152c-19 3.5-35 11.6-48.8 24.6l19 16.4 8.1-6a63.7 63.7 0 0 1 15.8-7.6c1.1-.4 1.8-.9 2-2.3l4-25.1Zm79.6 23.7c-10.4-11.3-37.8-24.4-48.4-23.3l.3 2.7c1 6.9 2.2 13.8 3 20.7.3 1.9 1 2.7 2.8 3.2 7.9 2.4 15 6.3 21.6 11.3.5.5 1.2.9 1.9 1.4l18.8-16ZM119.2 223c3.1-9.3 8-17.4 14.3-24.7l-16.7-18.6c-10.8 9.4-24.8 37-24 47.2l26.4-3.9Zm48 113.6-.3-2-3-21.9c-.3-2-1.2-2.8-3-3.4a65.8 65.8 0 0 1-20.9-12.2l-1.9-1.5-18.8 16.2c13.5 12.9 29.2 21 47.8 24.8Zm103.8-10c6.5-6.9 12.4-14.7 17.3-23.4L270.1 293l-14.2 19.2 15.1 14.5ZM157.8 339l-22.1-9.4L125 348c8.6 5 17.6 8.8 27.3 11.4l5.4-20.3Zm-59-11.6c5-5.4 10.2-10.2 14.6-15.3l-14-18.9L81 303.8c5 8.7 10.8 16.4 17.8 23.6ZM217 359.3c9.8-2.8 18.7-6.6 27.3-11.6l-10.6-18c-7.4 3-14.7 6.1-22.1 9.3l5.4 20.3ZM89.7 269.4 69.2 275c2.5 9.6 6 18.6 10.9 27.2l18.3-10.7-8.7-22ZM289 301.6a88 88 0 0 0 10.7-27.5l-20-5.1-8.6 22.2 18 10.4Zm-173 13c-5.5 4.3-11 8.8-15.9 14.2 7 7 14.7 13 23.3 18.1l10.5-18.4-18-13.9ZM69.8 211.2c7.2 2 14 3.7 20.6 5.4l9.3-21.3-18.5-10.7c-5 8.4-8.6 17.1-11.4 26.6Zm32-52.7 15 15.2 18.3-14-10.6-18.2a95 95 0 0 0-22.6 17Zm167.3 36.1 9.4 21.5 20.3-5.5c-2.7-9.5-6.5-18.3-11.5-26.7l-18.2 10.7Zm-132.3-35.8 21.4-8.8-5.6-20.6c-9.5 2.7-18.2 6.2-26.6 11l10.8 18.4Zm107-17.9-10.5 18.4 18 13.4c3-1.9 13.4-11.7 15.3-14.6-4.5-5-15.3-13.1-22.9-17.2Zm-33.8 8.9 21.5 8.5 10.6-18.4c-8.7-4.7-17.3-8.3-26.8-10.7l-5.3 20.6Zm58 43 18.3-10.5c-5.2-8.5-11-16-18.2-23L254 175.2l14.1 17.8Zm-22.1 154c8.6-5.2 16.3-11.2 23.7-18.8-.8-.5-1.5-.7-2-1.2-3.8-4-8.7-6.8-12.8-10.5-.6-.6-1.3-1-1.8-1.4l-17.6 13.6 10.5 18.2ZM114 176.7l-3.8-4.6c-1.1-1.3-2.5-2.4-3.2-4-1.5-3.4-4.7-5.2-7-8-7 7-12.8 14.3-17.8 22.7l18.8 10.7 6-8.5c2.2-2.8 4.6-5.4 7-8.4Zm79.4 186.6c7.6-.6 14.5-1.7 21.6-3.7l-5.6-20.5-12.6 2.4-3.4 21.8Zm87.9-133.7 21.8 3.5c-.5-7.2-1.8-14-3.8-20.7l-20.5 5.7 2.5 11.5ZM68.7 273l20.9-5.8-1.9-9.7-22-3.5c.3 6.5 1.4 12.6 3 19Zm104-147.2a88 88 0 0 0-18 3.1l5.7 21 8.7-1.9 3.6-22.2Zm-82.4 93c-7-2-13.9-3.8-21-5.6-1.5 6-2.9 11.6-3.2 17.7l22.3-3.3 2-8.8ZM208 149.6l5.6-20.9c-6-1.5-11.7-2.7-17.4-2.9l-.3.5 3 20.5c0 .5.7 1.1 1.2 1.3l8 1.5Zm-5 152.8a60.4 60.4 0 0 0 21.2-11.8A153.4 153.4 0 0 0 207 276l-3.9 26.4Zm26.2-99.3-15 16.4c9.5 1.3 18.2 2.9 27.4 4-2.9-7.8-6.9-14.3-12.4-20.4Zm50.6 63.8 20.7 5.6c1.3-5.7 2.5-11.1 2.7-17l-21.8 3.3-1.6 8Zm-120 72.3-5.5 20.7a92 92 0 0 0 16.8 3l-3.3-22-8-1.7Zm-33-75.6c2.8 7.9 6.5 14.5 11.7 20.5l15-16.6-26.7-4Zm115.2.9c-9 1.2-17.3 2-26.1 3.4l14.8 16.3c5-6 8.7-12.2 11.3-19.7Zm-19.2-67.3a58.5 58.5 0 0 0-18.2-10l3 23.2 15.2-13.2Zm-83.7 7.4c-4 3.5-10 13.5-10.4 17.3l23.3-3-13-14.3Zm24-17c-7 2.8-12.8 6.1-18 10.7l14.5 12.5 3.4-23.2Zm-18.5 102.7c5.3 4.6 10.9 8 17.4 10.6-.8-7.8-1.7-15.3-3-23.1l-14.4 12.5Zm71.7 9.5-13.8 5.9 1 2.6c5-1.6 9.7-3.5 14.2-6.3l-1.4-2.2Zm23-87.7 4.6 10c1 2.3.9 2.3 3.9 2a58.8 58.8 0 0 0-6.2-13.5l-2.3 1.5Zm.7 63.7-7.4 10.4 1 1.3c.2.3.6.4 1 .8 3-3.4 5.6-7 7.8-11l-2.4-1.5Zm-103.4 10.3-7.3-10.3-2.5 1.7 7.8 10.8 2-2.2Zm-15.5-23c1.2 4.3 2.7 8.3 5 12.3l2.2-1.5-3.5-9c-.9-2-.8-2-3.7-1.7Zm109.9-62 7.1 9c.7-.3 1.3-.6 1.8-1l.4-.9-7.3-9.3-2 2.2Zm10 72.7 2.5 1.5c2-3.7 3.5-7.3 4.7-11.5l-3.2.3-4 9.7Zm-88 25.8-1.4 2.4c3.6 2.1 7.1 3.8 11 5 .1-3 .1-3-2-4-2.5-1-4.8-2.1-7.6-3.4Zm-2-112a55 55 0 0 0-10 7.3l2.1 1.6 9.4-6.7-1.4-2.3Zm53.3-3.4 10 4.2 1.3-2.4c-3.8-2-7.4-3.6-11.6-4.8l.3 3ZM122 222.4c2.5.5 3.4-.3 4.1-2 1-2.5 2.2-4.7 3.4-7l.1-1-2.5-1.2-5.1 11.2Zm104.4 70c-2.9 2-5.6 4-8.4 6.2l1.6 2.4c3.3-2.1 6.3-4.2 9-7-1-.7-1.6-1.1-2.2-1.7Zm-84.1-.5-2.1 2.2 9.3 7 1.5-2.6-8.7-6.6Zm84.6-98.3c-3.1-2.6-6-4.8-9.5-6.5l-1.3 2.4 8.7 6 2.1-2Zm-96 17.2 6.2-8.4-2.1-2-6.6 8.8 2.5 1.6Zm32.7-29c-3.8 1.3-7.3 2.6-10.7 4.7l1.5 2.2c2.4-1 4.7-2.2 7-3 1.9-.6 2.4-1.8 2.2-4Z"/>
    <path d="M157.4 43.6c-.3 0-.5 0-.9-.2-.3-.2-.4-.5-.3-.8.1-.4.4-.6.8-.8l1.3-.5c1.3-.4 2.4-1 3.3-1.9.9-.9 1.6-2 2.2-3.6l10-26c.6-1.7.8-3 .5-4-.2-1-.8-1.8-1.8-2.3-1-.5-2.4-.9-4.2-1A3 3 0 0 1 167 2c-.3-.2-.5-.5-.5-1 0-.2.3-.4.7-.7l1.5-.3a129 129 0 0 1 8.4.3h4.7c.6 0 1 .2 1.4.4.4.2.7.6 1 1l12.5 28.6.3.5c.1.2.3.3.4.3.3 0 .6-.3.8-1l.5-1.3a58.3 58.3 0 0 0 1.6-5.5 142.6 142.6 0 0 0 3-12.2c.6-3 .5-5-.4-6.2-.7-1.2-2.4-2-4.8-2.5-.7 0-1-.4-1-1 0-.3.2-.5.6-.7l1-.2a47.9 47.9 0 0 1 7.7.4c.9 0 1.7 0 2.5-.2a46.3 46.3 0 0 1 5.7-.3c.8 0 1.2.3 1.2 1 0 .3-.3.6-.8.8a9 9 0 0 1-1.4.4c-1 .2-2 .5-2.7 1-.8.4-1.5 1-2 2-.7 1-1.2 2.6-1.9 4.5a172.1 172.1 0 0 1-2 6.4 954.2 954.2 0 0 1-4.9 16.5 9.5 9.5 0 0 0-.6 3.2c.1.8.4 1.7 1 2.7l.7 1.2c.2.4.5.8.8 1l.9.7c.2.2.4.4.4.6 0 .4-.2.7-.4.8-.2.2-.6.2-1 .2a31.2 31.2 0 0 0-5.6.4l-2.3.2c-1.3 0-2.3-.3-3-1a8.8 8.8 0 0 1-1.8-3 111.8 111.8 0 0 0-3.9-9.4 270 270 0 0 0-5.3-13 441.3 441.3 0 0 0-3.2-7c-.2 0-.3.2-.5.6l-.4.7a215 215 0 0 0-8 24c-.4 1.7-.3 3 .3 3.6.5.6 1.7 1.2 3.5 1.7.4 0 .7.2 1 .4.4.2.5.5.3 1 0 .3-.3.5-.7.7l-1.2.3a47.8 47.8 0 0 1-6.3-.2 84.4 84.4 0 0 0-6.2.2h-1.2Z"/>
  </g>
</svg>
