<svg width="500" height="500" fill="none" xmlns="http://www.w3.org/2000/svg">
  <path
    d="M237.93 47.4a.72.72 0 0 1-.33-.07c-.12-.06-.17-.15-.15-.27a.53.53 0 0 1 .3-.33c.13-.06.3-.12.47-.17.56-.15 1-.38 1.33-.7.33-.33.6-.77.8-1.3l3.72-10.05c.22-.6.3-1.08.23-1.45a1.2 1.2 0 0 0-.65-.88 3.7 3.7 0 0 0-1.53-.37c-.23-.03-.41-.1-.55-.18a.4.4 0 0 1-.17-.35c0-.11.1-.2.28-.27.18-.08.35-.13.52-.13a44.34 44.34 0 0 1 3.05.1l1.57.03c.22 0 .4.05.53.15.15.08.26.2.33.37l4.94 11.03.13.22c.07.07.13.1.18.1.11 0 .21-.12.3-.37l.2-.6.34-1.05c.14-.42.27-.88.4-1.38.16-.5.3-1.01.43-1.55.15-.53.28-1.05.4-1.57.13-.53.25-1.04.35-1.53.22-1.03.17-1.75-.15-2.15-.3-.41-.9-.7-1.8-.87-.32-.05-.47-.18-.45-.4.02-.1.1-.18.25-.25s.3-.1.43-.1c.65 0 1.21.02 1.7.07a7.96 7.96 0 0 0 2.07.02l.95-.07c.35-.03.74-.05 1.17-.05.34 0 .5.12.5.35 0 .12-.1.22-.3.3-.18.07-.37.12-.57.15-.4.09-.74.2-1.02.35-.27.14-.51.39-.73.75-.2.35-.42.87-.65 1.55a118.96 118.96 0 0 1-1.3 4.15 143.1 143.1 0 0 0-1.52 4.95c-.16.47-.22.85-.2 1.13.03.27.15.57.34.92l.28.45a2.6 2.6 0 0 0 .65.68c.1.05.15.12.15.22 0 .15-.04.25-.13.3a.98.98 0 0 1-.34.05c-.46 0-.83.02-1.13.05a19.02 19.02 0 0 1-1.65.13c-.47.02-.82-.08-1.05-.3a2.76 2.76 0 0 1-.63-1.03l-.62-1.47a507.07 507.07 0 0 0-4.1-9.65.45.45 0 0 0-.13-.2c-.05-.08-.09-.13-.12-.13-.08 0-.16.07-.22.2a131.24 131.24 0 0 0-.93 2.38l-.88 2.5-.8 2.57c-.23.84-.42 1.57-.57 2.2-.13.6-.1 1.04.1 1.3.22.27.68.49 1.38.65.14.04.28.1.4.18.13.07.17.17.12.32-.02.12-.1.21-.28.28-.14.07-.3.1-.44.1-.45 0-.81-.02-1.08-.05a9.94 9.94 0 0 0-.65-.03 27.6 27.6 0 0 0-2.9.05 14 14 0 0 1-.57.03ZM349.45 139.8c-.13 0-.3-.05-.52-.17-.2-.1-.4-.24-.6-.42-.19-.2-.32-.43-.4-.68-.09-.25-.07-.51.05-.8l2.52-6.27c.17-.42.1-.63-.22-.63l-.53.03a2 2 0 0 0-.72.22c-.27.12-.53.33-.78.63-.06.08-.17.12-.3.12-.13-.01-.2-.1-.22-.25 0-.11.05-.27.15-.47a6.13 6.13 0 0 1 .82-1.08c.4-.38.88-.7 1.45-.97a4.48 4.48 0 0 1 2.03-.43c.41 0 .73.11.95.33.23.22.37.49.42.82.05.32.01.65-.12 1l-1.33 3.28c-.05.12 0 .18.13.2.15.02.25-.03.32-.13.6-1.05 1.2-1.98 1.78-2.8a9.16 9.16 0 0 1 1.8-1.97c.63-.49 1.3-.73 2-.73.65 0 1.11.19 1.4.55.3.37.46.82.47 1.35.02.52-.08 1.02-.3 1.5l-1.87 4.43c-.22.51-.19.77.1.77a1 1 0 0 0 .42-.15 7.47 7.47 0 0 0 1.53-1.12l.25-.25c.1-.09.17-.13.22-.13.05 0 .1.04.15.1.07.05.1.12.1.2 0 .34-.1.64-.32.9-.5.59-1.06 1.11-1.68 1.58-.6.45-1.22.8-1.87 1.07-.65.25-1.27.38-1.85.38-.22 0-.44-.08-.68-.23-.21-.13-.38-.3-.5-.5-.1-.2-.1-.4-.02-.62.55-1.22 1.11-2.42 1.7-3.6a42.2 42.2 0 0 0 1.57-3.68c.12-.3.16-.52.13-.67-.04-.17-.14-.25-.33-.25-.21 0-.46.13-.72.4-.25.27-.52.6-.8 1a133.38 133.38 0 0 0-1.5 2.2 83.01 83.01 0 0 0-1.83 2.97l-.8 1.38c-.27.45-.53.83-.8 1.15-.26.3-.55.45-.85.45Zm15.44.03c-.45 0-.92-.13-1.42-.4-.5-.28-.93-.65-1.28-1.1a2.52 2.52 0 0 1-.52-1.55c0-1.03.19-2.03.57-3 .39-.98.9-1.85 1.53-2.62a7.66 7.66 0 0 1 2.15-1.83c.81-.46 1.64-.7 2.47-.7.97 0 1.67.19 2.1.55.44.37.65.8.65 1.3 0 .57-.19 1.06-.57 1.48-.37.4-.85.74-1.45 1.02-.58.29-1.22.52-1.9.7-.69.19-1.34.34-1.95.48a.35.35 0 0 0-.18.07.55.55 0 0 0-.1.18l-.1.4-.05.4c-.01.58.14 1.09.45 1.52.34.44.82.65 1.45.65.47 0 .9-.11 1.28-.35.4-.25.78-.57 1.15-.97.18-.19.32-.28.42-.28.17 0 .25.09.25.25 0 .05 0 .11-.02.18 0 .06-.02.12-.05.17-.32.6-.71 1.17-1.18 1.7-.46.52-1 .94-1.62 1.28-.62.31-1.31.47-2.08.47Zm.55-6.55c.34-.1.69-.21 1.05-.35a3.22 3.22 0 0 0 1.85-1.38c.22-.32.34-.72.38-1.2 0-.2-.06-.38-.18-.54a.58.58 0 0 0-.52-.28c-.3 0-.6.11-.9.33a4.86 4.86 0 0 0-1.85 3.28c-.02.13.04.18.17.14ZM346.61 351.3c-.7 0-1.26-.16-1.7-.48a1.48 1.48 0 0 1-.65-1.25c0-.43.1-.8.3-1.08.19-.3.44-.45.75-.45.13 0 .29.09.45.25.17.15.35.34.55.55.25.24.53.49.83.75.3.27.6.4.92.4.27 0 .46-.07.58-.22.13-.17.2-.4.22-.68.02-.25-.1-.57-.35-.97-.25-.42-.5-.82-.77-1.2-.3-.43-.57-.9-.8-1.38a3.46 3.46 0 0 1-.33-1.42c0-.45.15-.9.45-1.35a6.96 6.96 0 0 1 2.55-2.28 2.6 2.6 0 0 1 1.15-.37 3.31 3.31 0 0 1 2.18.92c.26.24.4.45.4.65 0 .19-.1.41-.28.68-.17.25-.36.47-.57.67a.99.99 0 0 1-.63.28.8.8 0 0 1-.55-.23c-.15-.16-.29-.33-.42-.5-.15-.21-.34-.4-.58-.55a1.1 1.1 0 0 0-.67-.25.66.66 0 0 0-.55.25.76.76 0 0 0-.2.53c0 .13.06.3.2.52a23.83 23.83 0 0 0 1.12 1.53 9.9 9.9 0 0 1 1.05 1.57c.22.42.33.84.33 1.25 0 .35-.14.75-.43 1.18-.28.43-.67.86-1.15 1.27-.46.42-1 .76-1.6 1.03-.58.25-1.18.37-1.8.37Zm9.61.02c-.45 0-.92-.13-1.42-.4-.5-.28-.93-.65-1.28-1.1a2.52 2.52 0 0 1-.52-1.55c0-1.03.19-2.03.57-3 .38-.98.9-1.86 1.53-2.63a7.66 7.66 0 0 1 2.15-1.82c.81-.47 1.64-.7 2.47-.7.97 0 1.67.18 2.1.55.44.37.65.8.65 1.3 0 .57-.19 1.06-.57 1.47-.37.4-.85.75-1.45 1.03-.59.28-1.22.52-1.9.7-.69.18-1.34.34-1.95.47a.35.35 0 0 0-.18.08.56.56 0 0 0-.1.17l-.1.4-.05.4c-.02.59.13 1.1.45 1.53.33.43.82.65 1.45.65.47 0 .9-.12 1.28-.35.4-.25.78-.58 1.15-.98.18-.18.32-.27.42-.27.17 0 .25.08.25.25 0 .05 0 .1-.02.17a.3.3 0 0 1-.05.18 8.8 8.8 0 0 1-1.18 1.7c-.47.52-1 .94-1.62 1.27-.62.32-1.31.48-2.08.48Zm.55-6.55c.34-.1.69-.22 1.05-.35.38-.13.74-.3 1.05-.53.32-.23.58-.51.8-.85.22-.33.34-.73.38-1.2 0-.2-.06-.38-.18-.55a.58.58 0 0 0-.52-.27c-.3 0-.6.1-.9.32a4.9 4.9 0 0 0-1.85 3.28c-.02.13.04.18.17.15ZM121.64 351.32c-.7 0-1.27-.16-1.7-.48a1.48 1.48 0 0 1-.65-1.25c0-.43.1-.79.3-1.07.18-.3.43-.45.75-.45.13 0 .28.08.45.25a41.56 41.56 0 0 0 1.38 1.3c.3.26.6.4.92.4.27 0 .46-.08.58-.23.13-.16.2-.39.22-.67.02-.25-.1-.58-.35-.98-.25-.41-.5-.81-.77-1.2-.3-.43-.57-.89-.8-1.37a3.46 3.46 0 0 1-.33-1.43c0-.45.15-.9.45-1.35a7.03 7.03 0 0 1 2.55-2.27 2.6 2.6 0 0 1 1.15-.38 3.33 3.33 0 0 1 2.17.93c.27.23.4.45.4.65 0 .18-.09.4-.27.67-.17.25-.36.48-.57.68a.98.98 0 0 1-.63.27.8.8 0 0 1-.55-.22c-.15-.17-.3-.33-.42-.5-.15-.22-.35-.4-.58-.55a1.1 1.1 0 0 0-.67-.25.67.67 0 0 0-.55.25.77.77 0 0 0-.2.52c0 .14.06.31.2.53l.52.72c.2.25.4.52.6.8a9.9 9.9 0 0 1 1.05 1.58c.22.41.33.83.33 1.25 0 .35-.15.74-.43 1.17-.28.44-.67.86-1.15 1.28-.47.41-1 .76-1.6 1.02-.58.25-1.18.38-1.8.38Zm9.66 0c-.47 0-.88-.15-1.25-.45a2.21 2.21 0 0 1-.65-1.4c-.07-.62.07-1.35.4-2.2l1.38-3.6c.08-.24.1-.38.05-.45s-.1-.1-.15-.1c-.1 0-.3.06-.58.17a145.57 145.57 0 0 1-1.33.72c-.21 0-.32-.1-.32-.32 0-.08.04-.2.13-.35.08-.16.21-.34.4-.52.28-.28.61-.58 1-.88a12.34 12.34 0 0 1 2.42-1.55c.4-.18.74-.27 1.03-.27.28 0 .51.07.7.22.2.15.3.41.3.78.01.37-.1.87-.35 1.52l-1.88 4.93c-.2.56-.2.99 0 1.27.2.29.48.43.85.43.22 0 .46-.1.73-.3.28-.22.56-.5.85-.85.28-.35.54-.74.77-1.18a7.88 7.88 0 0 0 .8-1.97c.05-.22.08-.44.1-.68a14.6 14.6 0 0 1 .3-1.62c.02-.15.08-.34.2-.58.13-.25.3-.46.5-.65.27-.23.52-.4.75-.52.23-.13.6-.2 1.08-.2.21 0 .39.07.52.22.15.15.24.4.28.73.03.33-.04.76-.2 1.3-.17.53-.4 1.04-.68 1.52l-.72 1.35c-.17.32-.3.65-.4.98-.1.33-.15.63-.13.9-.02.43.06.8.23 1.1.18.3.48.45.9.45.4 0 .79-.15 1.17-.45a6.48 6.48 0 0 0 2.25-4.6c0-.32-.04-.6-.12-.83a4.17 4.17 0 0 0-.28-.7l-.4-.7c-.12-.18-.17-.32-.17-.42 0-.13.13-.32.4-.55.26-.23.57-.44.92-.63.35-.18.65-.27.9-.27.27 0 .5.17.73.5.21.33.32.86.32 1.57 0 .7-.15 1.43-.45 2.18-.28.75-.67 1.49-1.15 2.22-.47.74-1 1.44-1.57 2.1a9.47 9.47 0 0 1-2.15 1.9c-.75.49-1.49.73-2.2.73-.59 0-1.05-.17-1.4-.5-.35-.35-.56-.8-.63-1.35-.05-.57.03-1.2.25-1.88l.1.83a7.12 7.12 0 0 1-2.8 2.55c-.55.23-1.13.35-1.75.35ZM133.82 142.32c-.14 0-.31-.06-.53-.18-.2-.1-.4-.24-.6-.42-.18-.2-.32-.43-.4-.68-.08-.25-.07-.51.05-.8l2.53-6.27c.16-.42.09-.63-.23-.63l-.52.03a2 2 0 0 0-.73.22c-.27.12-.52.33-.77.63-.07.08-.17.12-.3.12-.14-.01-.21-.1-.23-.25 0-.11.05-.27.15-.47a6.32 6.32 0 0 1 .83-1.08c.4-.38.88-.7 1.45-.97a4.49 4.49 0 0 1 2.02-.43c.42 0 .73.11.95.33.23.22.38.49.43.82.05.32 0 .65-.13 1l-1.32 3.28c-.05.12-.01.18.12.2.15.01.26-.03.33-.13.6-1.05 1.19-1.98 1.77-2.8a9.16 9.16 0 0 1 1.8-1.97c.63-.49 1.3-.73 2-.73.65 0 1.12.19 1.4.55.3.37.46.82.48 1.35.01.52-.09 1.02-.3 1.5l-1.88 4.43c-.22.52-.18.77.1.77a1 1 0 0 0 .43-.15 7.47 7.47 0 0 0 1.52-1.12l.25-.25c.1-.09.18-.13.23-.13.05 0 .1.04.15.1.06.05.1.12.1.2 0 .34-.11.64-.33.9-.5.59-1.06 1.11-1.67 1.58-.6.45-1.23.8-1.88 1.07-.65.25-1.27.38-1.85.38-.22 0-.44-.08-.67-.23-.22-.13-.39-.3-.5-.5-.1-.2-.11-.4-.03-.62.55-1.22 1.12-2.42 1.7-3.6a42.2 42.2 0 0 0 1.58-3.68c.11-.3.15-.52.12-.67-.03-.17-.14-.25-.32-.25-.22 0-.46.13-.73.4-.25.27-.52.6-.8 1a155.24 155.24 0 0 0-1.5 2.2 90 90 0 0 0-1.82 2.97l-.8 1.38c-.27.45-.54.83-.8 1.15-.27.3-.55.45-.85.45Zm15.49 0c-.47 0-.89-.15-1.25-.45a2.21 2.21 0 0 1-.65-1.4c-.07-.62.06-1.35.4-2.2l1.37-3.6c.09-.23.1-.38.05-.45s-.1-.1-.15-.1c-.1 0-.29.06-.57.17a39.7 39.7 0 0 1-1.33.72c-.21 0-.32-.1-.32-.32 0-.08.04-.2.12-.35.09-.16.22-.34.4-.52.29-.28.62-.58 1-.88a12.59 12.59 0 0 1 2.43-1.55c.4-.18.74-.27 1.02-.27.29 0 .52.07.7.22.2.15.3.41.3.78.02.37-.1.87-.35 1.52l-1.87 4.93c-.2.56-.2.99 0 1.27.2.29.48.43.85.43.21 0 .46-.1.72-.3.29-.22.57-.5.85-.85.29-.35.54-.74.78-1.18a7.81 7.81 0 0 0 .8-1.97 15.7 15.7 0 0 1 .4-2.3c.01-.15.08-.34.2-.58.13-.25.3-.46.5-.65.26-.23.51-.4.75-.52.23-.13.59-.2 1.07-.2.22 0 .4.07.53.22.15.15.24.4.27.73.04.33-.03.77-.2 1.3-.16.53-.39 1.04-.67 1.52l-.73 1.35c-.16.32-.3.65-.4.98-.1.33-.14.63-.12.9-.02.43.06.8.22 1.1.19.3.49.45.9.45.4 0 .8-.15 1.18-.45a6.48 6.48 0 0 0 2.25-4.6 4.01 4.01 0 0 0-.4-1.52 10.5 10.5 0 0 0-.4-.7c-.12-.19-.18-.33-.18-.43 0-.13.14-.32.4-.55.27-.24.58-.44.93-.63.35-.18.65-.27.9-.27.26 0 .5.16.72.5.22.33.33.86.33 1.57 0 .7-.15 1.43-.45 2.18-.29.75-.67 1.49-1.15 2.22-.47.74-1 1.44-1.58 2.1a9.43 9.43 0 0 1-2.15 1.9c-.75.49-1.48.73-2.2.73-.58 0-1.05-.17-1.4-.5-.35-.35-.56-.8-.62-1.35-.05-.57.03-1.2.25-1.88l.1.83a7.06 7.06 0 0 1-2.8 2.55c-.55.23-1.14.35-1.75.35ZM243.28 454.35c-.6 0-1.17-.04-1.7-.13-.52-.06-1.01-.19-1.48-.37a5.92 5.92 0 0 0-.9-.33.88.88 0 0 0-.35.08l-.28.1-.34.2c-.1.07-.19.1-.25.1-.1 0-.22-.07-.35-.2-.16-.13-.23-.26-.23-.38 0-.13.1-.4.28-.8.18-.4.37-.89.57-1.47.22-.58.37-1.2.45-1.82.1-.56.32-.83.65-.83.22 0 .35.13.4.4.05.25.07.64.07 1.18 0 .53.11 1.05.33 1.57.22.5.55.9 1 1.23.47.31 1.05.47 1.75.47 1 0 1.78-.27 2.32-.8.57-.53.85-1.2.85-2 0-.37-.06-.7-.2-1.03-.13-.33-.37-.7-.72-1.1-.35-.4-.87-.9-1.55-1.5a9.6 9.6 0 0 1-1.82-2.1 4.76 4.76 0 0 1-.63-2.52c0-.93.26-1.77.78-2.5a5.44 5.44 0 0 1 2.1-1.75 7 7 0 0 1 3.07-.65c.57 0 1.08.05 1.55.15a13.03 13.03 0 0 1 2.07.57c.2.06.4.08.6.08.24 0 .45-.05.63-.15.12-.07.23-.12.35-.15a.83.83 0 0 1 .32-.07c.19 0 .3.05.33.17.03.12 0 .24-.1.38-.18.23-.38.56-.6 1a15.92 15.92 0 0 0-1.07 2.95 1.4 1.4 0 0 1-.2.44c-.09.12-.21.18-.38.18-.15 0-.27-.08-.35-.25-.07-.17-.1-.43-.1-.77 0-1.1-.28-1.97-.83-2.6a2.61 2.61 0 0 0-2.12-.98c-.58 0-1.08.13-1.5.4a2.71 2.71 0 0 0-1.2 2.23c0 .4.07.76.2 1.1.13.31.37.65.7 1.02.35.37.86.83 1.53 1.4a8.2 8.2 0 0 1 2.04 2.3 4.73 4.73 0 0 1-.2 4.8c-.5.8-1.21 1.46-2.15 1.97-.91.52-2.03.78-3.34.78ZM37.4 249.76c-.3 0-.53-.16-.68-.48a3.32 3.32 0 0 1-.25-1.25c-.02-.5 0-1.01.07-1.55.15-.95.3-1.88.43-2.8a225.13 225.13 0 0 0 1.12-8.05c.05-.38.04-.67-.02-.87a.8.8 0 0 0-.33-.5c-.16-.13-.4-.24-.7-.33-.25-.1-.46-.17-.65-.22-.16-.07-.25-.19-.25-.35 0-.14.08-.23.23-.28.16-.06.38-.1.65-.1.5 0 1.04.02 1.62.05a28 28 0 0 0 2.85.03c.49-.03.97-.05 1.45-.05l1.23-.03a.9.9 0 0 1 .4.1c.13.05.19.14.17.25-.05.15-.17.28-.37.38-.19.08-.36.14-.53.17-.4.07-.72.16-.97.28-.24.12-.41.28-.53.5-.1.2-.18.49-.25.87-.23 1.44-.5 2.9-.8 4.4-.28 1.5-.54 2.98-.77 4.43-.04.23-.02.36.05.4.08.02.21-.08.4-.3l5.9-7.1c.31-.39.58-.75.8-1.1.21-.37.32-.72.32-1.05 0-.37-.07-.64-.22-.83-.15-.2-.43-.35-.83-.45-.26-.1-.48-.17-.65-.22-.16-.07-.25-.19-.25-.35 0-.14.08-.23.23-.28.16-.06.37-.1.62-.1l1.1.03 1.2.05a25.51 25.51 0 0 0 2.28 0 43.98 43.98 0 0 1 2.7-.1c.41 0 .62.11.62.35 0 .15-.09.27-.27.37-.19.09-.38.14-.58.18-.63.11-1.09.28-1.37.5-.27.2-.45.57-.55 1.12l-1.58 8.93c-.03.23 0 .34.08.32.08-.01.21-.13.4-.35l5.32-6.8a7.62 7.62 0 0 0 1.25-2.02c.19-.52.2-.9.05-1.15a1.07 1.07 0 0 0-.65-.55c-.16-.05-.31-.11-.45-.18-.13-.08-.17-.2-.12-.35.03-.11.13-.2.3-.25.18-.06.36-.1.52-.1.34 0 .66.01.98.03l.95.05h.95c.5 0 .94-.03 1.32-.08.4-.05.85-.07 1.35-.07.19 0 .35.03.5.1.15.06.23.17.23.3 0 .15-.11.26-.33.35-.21.08-.42.14-.62.17-.52.12-1.04.35-1.58.7-.53.35-1.01.78-1.45 1.28l-8.8 10.2-1.47 1.77c-.45.55-.85 1.01-1.2 1.38-.34.35-.62.52-.85.52-.29 0-.5-.07-.65-.22a1.03 1.03 0 0 1-.3-.6c-.05-.27-.07-.6-.05-.98.03-.38.09-.82.17-1.32l.53-2.9a318.54 318.54 0 0 0 1.07-5.9l-6.9 8.3c-.28.33-.58.72-.9 1.15-.3.41-.6.82-.92 1.22-.32.39-.63.7-.93.95-.3.25-.58.38-.85.38ZM434.85 249.46c-.17 0-.28-.04-.33-.13a.27.27 0 0 1-.07-.25c.05-.25.28-.42.7-.52.63-.17 1.1-.34 1.4-.53.3-.2.53-.56.7-1.1l3.5-11.37c.18-.57.2-.96.02-1.18-.14-.23-.5-.4-1.07-.52-.2-.05-.33-.12-.4-.2a.46.46 0 0 1-.07-.33c.03-.1.13-.18.3-.25.16-.08.41-.12.75-.12a32.02 32.02 0 0 1 2 .13l1.12.02 4.13-.03a17.07 17.07 0 0 0 3.37-.3.4.4 0 0 1 .3.13c.1.08.15.2.15.37 0 .2-.06.49-.18.85l-.32 1.18c-.1.41-.16.8-.18 1.17 0 .17-.05.3-.15.38-.08.08-.16.12-.25.12-.06 0-.14-.03-.22-.1a.87.87 0 0 1-.15-.35 4.88 4.88 0 0 0-.47-1.97c-.22-.4-.65-.6-1.28-.6h-1.95c-.42 0-.76.12-1.02.37-.25.24-.49.71-.7 1.43l-1.2 4.1c-.07.23-.07.4 0 .5.08.08.23.12.45.12H446c.43-.01.8-.15 1.1-.4.32-.26.6-.61.85-1.05.08-.15.2-.26.32-.35.16-.1.28-.15.38-.15.1 0 .17.06.2.18.03.1 0 .24-.08.42l-.42 1.03a17.33 17.33 0 0 0-.85 2.98c-.07.21-.14.38-.23.5-.06.11-.14.17-.22.17-.12 0-.22-.07-.3-.2a.65.65 0 0 1-.1-.43c.02-.53-.03-.94-.15-1.22a.64.64 0 0 0-.65-.45h-2.5c-.2 0-.38.05-.53.15-.13.08-.22.23-.27.45l-1.28 4.37c-.18.67-.18 1.16 0 1.48.2.31.63.47 1.28.47h2.18c.34 0 .69-.06 1.02-.17a3.51 3.51 0 0 0 1.93-1.45l.9-1.35c.08-.12.15-.2.2-.25a.4.4 0 0 1 .25-.08c.1 0 .16.05.2.15.03.09.04.23.04.43 0 .16-.06.47-.2.9a11.27 11.27 0 0 1-1.14 2.5c-.09.11-.2.2-.33.25a1 1 0 0 1-.4.07c-.18 0-.52 0-1-.02l-1.68-.03c-.64 0-1.34 0-2.07-.02-.72 0-1.43-.01-2.15-.03h-1.95l-1.15.03-1.22.05c-.4.03-.78.05-1.13.05Z"
    fill="#643322"
  />
  <path
    fill-rule="evenodd"
    clip-rule="evenodd"
    d="M235.78 368.22c-29.91-3.59-55.52-15.74-76.38-37.3-20.86-21.56-32.15-47.58-34.75-77.63-3.3-.52-6.5-1.04-9.7-1.52l-46.42-6.82c-.92-.14-1.86-.28-2.71-.63-.53-.21-1.3-.87-1.26-1.25.06-.6.61-1.35 1.16-1.64a9.6 9.6 0 0 1 2.93-.86c17.93-2.83 35.86-5.64 53.8-8.45.81-.13 1.62-.32 2.56-.5 3.53-29.4 15.4-54.77 36.49-75.53 21-20.7 46.42-32.19 75.9-35.34.53-3.44 1.09-6.81 1.59-10.2 2.11-14.37 4.2-28.75 6.32-43.12.24-1.66.52-3.31.85-4.95.19-.9.37-1.97 1.56-2.04 1.32-.07 1.66 1.05 1.94 2.02.31 1.07.51 2.18.69 3.28l8.44 53.82c.05.27.15.53.32 1.1 29.83 2.95 55.86 14.62 77.23 35.93 21.32 21.26 33.1 47.15 36.2 77.35 2.07.33 4.15.69 6.24 1 16.02 2.38 32.05 4.75 48.06 7.17 1.37.2 3.51-.03 3.4 2.02-.11 1.77-2.13 1.82-3.56 2.06-6.9 1.13-13.8 2.2-20.69 3.28l-33.4 5.28c-3 30.49-14.96 56.87-36.86 78.4-21.85 21.46-48.34 32.96-79.03 35.5-.63 4.17-1.26 8.28-1.87 12.4l-6.15 41.46c-.14.91-.3 1.86-.65 2.7-.54 1.28-1.9 1.4-2.57.18a10 10 0 0 1-1.04-3.15c-1.04-6.44-2.01-12.89-3.02-19.32l-5.21-33.12c-.08-.45-.23-.9-.41-1.58Zm11.98 38.16.43.13c.51-3.28 1.04-6.56 1.54-9.85l8.76-57.72c2.86-18.87 5.77-37.73 8.6-56.6.68-4.5 1.09-9.03 1.74-13.52.2-1.34-.43-2.08-1.23-2.9l-18.2-18.54c-.4-.4-.93-.67-1.64-1.18V406.4Zm-1.08-326.2h-.24c-.16.71-.39 1.42-.5 2.14-1.12 7.65-2.18 15.3-3.36 22.94-3.82 24.94-7.72 49.86-11.53 74.8-1.88 12.34-3.61 24.7-5.47 37.03-.2 1.32.04 2.28 1 3.25 6.36 6.41 12.66 12.88 19 19.33.23.24.55.39 1.1.75V80.17ZM83.74 243.98l-.04.35c4.49.66 8.98 1.29 13.46 1.97 15.65 2.36 31.3 4.72 46.93 7.13 16.28 2.5 32.56 5.07 48.84 7.57 9.1 1.4 18.24 2.65 27.34 4.06a5.15 5.15 0 0 0 4.95-1.65c5.95-6.03 12.04-11.93 18.07-17.88.4-.4.66-.92 1.1-1.54H83.74Zm326.1-1.2.04-.38-1.29-.23c-21.81-3.31-43.62-6.64-65.44-9.94-23.1-3.5-46.22-6.96-69.32-10.5a3.88 3.88 0 0 0-3.7 1.25c-6.15 6.1-12.36 12.14-18.54 18.22-.41.4-.71.92-1.2 1.57h159.46ZM261.6 337.43c20.24-3.16 37.42-11.45 52.08-25.42l-18.27-15.62c-4.95 3.23-9.42 6.62-14.31 9.22-4.89 2.6-10.2 4.4-15.6 6.66l-3.9 25.16Zm79.51-108.47c-3.5-19.7-12.04-36.29-25.83-50.52l-16.5 18.41c.4.53.6.84.85 1.11a67.53 67.53 0 0 1 14.69 25.11c.53 1.67 1.47 2.12 2.97 2.34 5.8.85 11.59 1.8 17.38 2.68 2 .3 4 .54 6.44.87Zm-144.17 61.3a70.67 70.67 0 0 1-14.96-28.04l-26.25-4.05c3.1 19.64 11.22 36.25 24.52 50.66a71218 71218 0 0 1 16.69-18.56Zm144.24-30.71c-1.28.12-2.09.16-2.89.28-6.72.99-13.43 2.09-20.17 2.94-2.05.25-3 .98-3.62 3-2.66 8.63-7 16.4-12.82 23.33-.4.47-.74 1.01-1.19 1.64l16.34 18.12a94.47 94.47 0 0 0 24.35-49.31ZM232.5 152a94.31 94.31 0 0 0-48.84 24.63l19.1 16.34c2.83-2.07 5.39-4.08 8.07-5.9a63.7 63.7 0 0 1 15.73-7.7c1.14-.38 1.87-.84 2.07-2.22 1.2-8.19 2.5-16.36 3.87-25.15Zm79.6 23.65c-10.46-11.22-37.82-24.36-48.4-23.3.1.91.18 1.83.3 2.73 1.03 6.9 2.15 13.78 3.01 20.7.24 1.91 1.03 2.68 2.76 3.2a66.77 66.77 0 0 1 21.6 11.36c.57.44 1.17.85 1.9 1.38l18.82-16.07Zm-128.88 47.48a70.66 70.66 0 0 1 14.3-24.72l-16.72-18.59c-10.84 9.4-24.8 36.89-23.97 47.2l26.39-3.9Zm47.89 113.55c-.09-.95-.1-1.49-.18-2.02-1.06-7.27-2.19-14.54-3.13-21.83-.25-1.97-1.16-2.82-2.94-3.44A65.82 65.82 0 0 1 204 297.23c-.56-.48-1.14-.92-1.86-1.5l-18.89 16.13c13.53 12.91 29.28 21.08 47.87 24.82Zm103.9-10a116.33 116.33 0 0 0 17.3-23.38L334.07 293l-14.22 19.19 15.16 14.48ZM221.77 339l-22.1-9.36-10.59 18.22a112.71 112.71 0 0 0 27.36 11.46l5.33-20.32Zm-59.01-11.63c5.03-5.34 10.29-10.13 14.67-15.25l-14.03-18.92-18.38 10.6a116.24 116.24 0 0 0 17.74 23.57Zm118.2 31.87c9.8-2.74 18.78-6.54 27.37-11.57l-10.59-18.06-22.15 9.37 5.38 20.26Zm-127.28-89.84-20.52 5.44c2.52 9.7 6.1 18.66 10.93 27.25l18.29-10.71-8.7-21.98Zm199.35 32.2c4.1-6.02 10.56-22.73 10.64-27.48l-19.9-5.13-8.7 22.2 17.96 10.42Zm-173.1 13c-5.48 4.25-10.9 8.75-15.82 14.19 7.04 7 14.7 13.05 23.32 18.11l10.43-18.37-17.93-13.93ZM133.9 211.25l20.64 5.4 9.24-21.37-18.5-10.67c-4.93 8.42-8.6 17.1-11.38 26.64Zm32.08-52.76 14.85 15.17 18.32-13.87-10.58-18.29c-6.07 2.75-19.11 12.67-22.59 16.99Zm167.2 36.1 9.44 21.5 20.33-5.44a114.16 114.16 0 0 0-11.58-26.75l-18.2 10.7Zm-132.25-35.8 21.38-8.78-5.57-20.61a112.9 112.9 0 0 0-26.6 11.02l10.79 18.36Zm106.89-17.85-10.44 18.4c6.2 4.6 12.1 8.94 18.07 13.34 3.01-1.86 13.3-11.7 15.24-14.62-4.47-4.93-15.3-13.08-22.87-17.12Zm-33.73 8.81 21.5 8.59 10.61-18.4a114.41 114.41 0 0 0-26.76-10.73l-5.35 20.54Zm58 43.12 18.33-10.6a118.25 118.25 0 0 0-18.2-22.9l-14.25 15.7 14.13 17.8ZM310 346.72a117.66 117.66 0 0 0 23.69-18.7c-.81-.49-1.47-.73-1.9-1.19-3.88-4.05-8.8-6.8-12.9-10.57-.6-.55-1.31-.99-1.8-1.36l-17.57 13.6 10.48 18.22ZM178.15 176.71l-3.87-4.56c-1.08-1.27-2.53-2.4-3.15-3.87-1.5-3.53-4.73-5.27-7.11-8.11a116.26 116.26 0 0 0-17.73 22.72l18.8 10.75c2.11-2.97 4.01-5.83 6.1-8.54 2.16-2.8 4.5-5.44 6.96-8.39Zm79.3 186.71c7.63-.6 14.56-1.7 21.66-3.68-1.9-6.95-3.76-13.7-5.64-20.51l-12.54 2.4-3.47 21.8Zm87.93-133.69 21.86 3.48c-.5-7.2-1.8-13.94-3.8-20.76l-20.57 5.72 2.5 11.56Zm-212.7 43.28 20.88-5.77-1.84-9.72-22.09-3.51c.4 6.53 1.47 12.61 3.05 19Zm103.97-147.2a88.07 88.07 0 0 0-18.04 3.14l5.75 20.9 8.77-1.83 3.52-22.2Zm-82.32 92.95-20.97-5.6c-1.55 5.95-2.92 11.65-3.23 17.78l22.25-3.32 1.95-8.86Zm117.7-69.2 5.57-20.86c-6-1.48-11.67-2.68-17.37-2.9-.2.36-.3.44-.28.51.95 6.82 1.9 13.64 2.93 20.45.07.5.7 1.19 1.18 1.3 2.53.56 5.1.98 7.98 1.5ZM267 302.43a60.36 60.36 0 0 0 21.23-11.82c-2.34-2.69-15.52-13.85-17.31-14.62L267 302.43Zm26.15-99.33-14.86 16.45c9.39 1.3 18.14 2.83 27.33 3.9a60.7 60.7 0 0 0-12.47-20.35Zm50.69 63.78 20.7 5.57c1.3-5.67 2.43-11.06 2.65-16.86l-21.79 3.24-1.56 8.05Zm-119.97 72.29-5.56 20.72c5.73 1.38 11.06 2.67 16.8 2.98l-3.3-22.02-7.94-1.68Zm-33.03-75.6c2.77 7.9 6.43 14.53 11.64 20.51l14.99-16.58-26.63-3.93Zm115.14.93c-8.9 1.2-17.32 1.97-26.09 3.43l14.8 16.25a60.67 60.67 0 0 0 11.29-19.68Zm-19.17-67.26a58.53 58.53 0 0 0-18.2-10.13l2.94 23.26 15.26-13.13Zm-83.72 7.4c-4.07 3.48-10.06 13.46-10.4 17.28l23.33-2.96-12.93-14.33Zm23.93-17.01c-6.94 2.76-12.7 6.12-17.98 10.7l14.56 12.46 3.42-23.16Zm-18.47 102.64a61.32 61.32 0 0 0 17.46 10.65c-.85-7.85-1.72-15.31-2.92-23.16l-14.54 12.51Zm71.75 9.48-13.81 5.92.94 2.59c5.06-1.55 9.8-3.42 14.3-6.22l-1.43-2.29Zm23.02-87.66c1.57 3.46 3.1 6.73 4.54 10.03 1 2.28.94 2.3 3.9 1.9-1.59-4.66-3.43-9.15-6.2-13.42l-2.24 1.5Zm.69 63.71-7.37 10.41c.3.42.61.88.98 1.28.23.26.55.44 1 .78a59.16 59.16 0 0 0 7.82-11.04l-2.43-1.43Zm-103.4 10.3-7.29-10.3-2.47 1.67 7.73 10.87 2.03-2.24Zm-15.53-22.95a59.5 59.5 0 0 0 4.93 12.22l2.29-1.48c-1.23-3.08-2.4-6-3.54-8.94-.83-2.13-.8-2.13-3.68-1.8Zm109.9-62.02 7.12 9.06c.71-.42 1.27-.73 1.81-1.08.13-.09.16-.31.43-.86l-7.32-9.36-2.04 2.24Zm10.02 72.7 2.5 1.45a56.45 56.45 0 0 0 4.65-11.5l-3.12.35c-1.38 3.35-2.66 6.42-4.03 9.7Zm-88 25.74-1.43 2.44a52.87 52.87 0 0 0 11.02 5.04c.15-3 .14-2.97-2.07-3.97-2.37-1.06-4.71-2.2-7.53-3.51Zm-1.94-112.04a55.01 55.01 0 0 0-10.07 7.35l2.12 1.67 9.4-6.77-1.45-2.25Zm53.23-3.34 9.96 4.2 1.34-2.42a55.73 55.73 0 0 0-11.63-4.75l.33 2.97Zm-82.21 38.17c2.48.54 3.45-.26 4.14-2.03.95-2.4 2.23-4.68 3.35-7.02.1-.22.08-.5.13-.9l-2.48-1.18-5.14 11.13Zm104.38 69.96-8.4 6.25 1.62 2.41c3.29-2.13 6.34-4.14 9.04-6.92-.93-.71-1.58-1.2-2.26-1.74Zm-84.1-.41-2.06 2.2 9.28 6.93 1.55-2.58-8.77-6.55Zm84.66-98.33c-3.16-2.6-6.08-4.79-9.54-6.5l-1.28 2.4 8.66 5.95 2.16-1.85Zm-96.06 17.18 6.22-8.35-2.1-1.97-6.57 8.76 2.45 1.56Zm32.7-29.05c-3.78 1.42-7.3 2.67-10.64 4.83l1.48 2.18c2.45-1.07 4.67-2.21 7-3.01 1.86-.64 2.38-1.77 2.16-4Z"
    fill="#643322"
  />
  <path
    fill-rule="evenodd"
    clip-rule="evenodd"
    d="M215.53 121.18a2.72 2.72 0 0 1-2.54-2.77 2.76 2.76 0 0 1 2.85-2.47 2.77 2.77 0 0 1 2.4 2.64 2.68 2.68 0 0 1-2.71 2.6ZM280.64 118.48a2.74 2.74 0 0 1 2.77-2.55 2.7 2.7 0 0 1 2.48 2.82 2.6 2.6 0 0 1-2.62 2.39 2.65 2.65 0 0 1-2.63-2.66ZM280.75 371.13a2.65 2.65 0 0 1 2.7-2.6 2.65 2.65 0 0 1 2.56 2.71 2.6 2.6 0 0 1-2.55 2.44 2.59 2.59 0 0 1-2.71-2.55ZM213.06 371.22a2.63 2.63 0 1 1 5.26-.02 2.59 2.59 0 0 1-2.48 2.51 2.61 2.61 0 0 1-2.78-2.49ZM360.05 310.36a2.66 2.66 0 0 1 2.55-2.73 2.64 2.64 0 0 1 2.69 2.6 2.57 2.57 0 0 1-2.42 2.56c-1.5.1-2.74-.97-2.82-2.43ZM136.29 176.94a2.63 2.63 0 1 1-.36 5.24 2.69 2.69 0 0 1-2.36-2.66 2.69 2.69 0 0 1 2.72-2.58ZM360.06 179.46a2.71 2.71 0 0 1 2.68-2.63 2.67 2.67 0 0 1 2.58 2.72 2.59 2.59 0 0 1-2.53 2.46 2.6 2.6 0 0 1-2.73-2.55ZM338.14 151.12a2.71 2.71 0 0 1 2.67-2.64 2.67 2.67 0 0 1 2.59 2.72 2.59 2.59 0 0 1-2.53 2.46 2.61 2.61 0 0 1-2.73-2.54ZM152.91 336.33a2.72 2.72 0 0 1 2.68-2.63 2.68 2.68 0 0 1 2.59 2.72 2.6 2.6 0 0 1-2.53 2.46 2.61 2.61 0 0 1-2.74-2.55ZM340.02 334.06a2.72 2.72 0 0 1 2.68-2.63 2.68 2.68 0 0 1 2.59 2.72 2.6 2.6 0 0 1-2.53 2.46 2.61 2.61 0 0 1-2.74-2.55ZM153.94 153.5a2.72 2.72 0 0 1 2.68-2.63 2.68 2.68 0 0 1 2.58 2.72 2.6 2.6 0 0 1-2.52 2.46 2.61 2.61 0 0 1-2.74-2.55ZM133.65 310.2a2.7 2.7 0 0 1 2.77-2.54c1.43.07 2.61 1.39 2.5 2.8a2.62 2.62 0 0 1-2.62 2.37 2.63 2.63 0 0 1-2.65-2.64ZM375.7 281.29a2.58 2.58 0 0 1-2.53-2.73 2.5 2.5 0 0 1 2.48-2.46 2.59 2.59 0 0 1 2.7 2.56 2.65 2.65 0 0 1-2.65 2.63ZM375.72 213.63a2.6 2.6 0 0 1-2.53-2.73 2.54 2.54 0 0 1 2.75-2.48 2.6 2.6 0 0 1 2.42 2.57 2.66 2.66 0 0 1-2.64 2.64ZM184.07 355.53a2.52 2.52 0 0 1 2.68 2.54c0 1.38-1 2.5-2.34 2.62a2.6 2.6 0 0 1-2.82-2.42c-.1-1.47 1-2.69 2.48-2.74ZM125.79 278.82a2.55 2.55 0 0 1-2.7 2.54 2.56 2.56 0 0 1-2.46-2.78 2.54 2.54 0 0 1 2.55-2.39 2.53 2.53 0 0 1 2.6 2.63ZM312.28 131.5a2.55 2.55 0 0 1 2.75-2.49c1.36.1 2.4 1.22 2.4 2.58 0 1.46-1.2 2.67-2.63 2.64a2.6 2.6 0 0 1-2.52-2.73ZM120.58 210.87a2.51 2.51 0 0 1 2.86-2.33 2.5 2.5 0 0 1 2.29 2.63 2.57 2.57 0 0 1-2.73 2.5 2.56 2.56 0 0 1-2.42-2.8ZM314.99 355.46a2.54 2.54 0 0 1 2.5 2.74 2.62 2.62 0 0 1-2.51 2.48 2.6 2.6 0 0 1-2.64-2.63c0-1.49 1.16-2.63 2.65-2.59ZM184.07 134.27a2.6 2.6 0 0 1-2.54-2.72 2.52 2.52 0 0 1 2.74-2.49 2.51 2.51 0 0 1 2.4 2.55 2.62 2.62 0 0 1-2.6 2.66Z"
    fill="#643322"
  />
</svg>
