<svg
  width="48"
  height="48"
  viewBox="0 0 48 48"
  fill="none"
  xmlns="http://www.w3.org/2000/svg"
>
  <path
    d="M27.5 27.5c-10.9 11-19.2 8.9-24.1 6.4 0 0 .9 3.4 4.4 6.8 3.6 3.5 13.4 9.6 28-5s8.5-24.4 5-28c-3.8-3.7-7-4.3-7-4.3s10.8 7-6.3 24.1Z"
    fill="#FBC02D"
  />
  <path
    d="M35.7 35.7c16.2-16.2 1.2-30.3 1.5-25.8a17 17 0 0 1-3.1 9.6c-1.5 2.3 14.1.9 1.6 16.2Z"
    fill="#FFE57F"
  />
  <path
    d="M14.3 42.8c-.3 0-.5-.2-.5-.5s.2-.5.5-.5c2.7-.1 5.4-.8 7.8-2.1.2-.1.2-.2.3-.7v-.3c.2-1.6.9-2.6 1.9-2.8.3-.1.5.1.6.4.1.3-.1.5-.3.6-.5.1-.8.6-.7 1 0 .2.2.4.4.4.1 0 .3.1.4 0 .3-.2.3-.7.3-1.3.1-1.6.8-3.3 2.3-3.6.3-.1.5.1.6.4.1.3-.1.5-.4.6-.2 0-.4.2-.5.4v.6c.1.2.3.3.5.3l.5-.1a8 8 0 0 1 .9-3.1c.3-.5.6-.9.9-1.1.2-.2.5-.3.8-.3.3 0 .5.2.5.5s-.2.5-.4.5l-.3.1-.1.1v.5c.1.2.3.3.4.3.2.1.5 0 .7-.1.4-.3.6-.8.6-1.4v-1.2a3 3 0 0 1 1.8-2.7c.2-.1.5 0 .6.2.1.2 0 .5-.2.7-.5.3-.9.9-.6 1.3l.4.2.7-.2c.3-.3.5-.9.5-1.6v-.6l.1-1.6.4-1c.3-.5.7-.8 1.3-.9.3 0 .5.1.6.4 0 .3-.1.5-.4.6-.2 0-.5.2-.6.4l-.1.2.2.4.3.1c.2 0 .4-.3.5-.6a3 3 0 0 0 .1-2.1l-.1-.2-.2-.6c-.1-.6.2-1.1.5-1.6.2-.4.5-.6.9-.8.2-.1.5 0 .6.2.1.2.1.5-.1.6l-.5.5v.1c0 .2 0 .4.2.5.2.3.6.3.8 0 0 0 .1-.2 0-.4s0-.5.2-.7c.2-.1.5 0 .7.2.2.4.2.9-.1 1.3-.4.7-1.3.9-1.9.6.3.9.2 1.8-.1 2.7-.3.7-.7 1.1-1.2 1.2-.3.1-.7 0-1-.2V28.3c0 1-.3 1.8-.8 2.4-.4.4-1 .6-1.6.5a1 1 0 0 1-.9-.5v1c0 .9-.4 1.8-1.1 2.2a2 2 0 0 1-1.5.3c-.4-.1-.8-.3-1-.6a6 6 0 0 0-.5 2.3l-.1.3c-.3.4-.9.6-1.4.5a2 2 0 0 1-1.3-.8l-.2 1c0 .8-.1 1.6-.7 2.1-.4.3-.9.3-1.4.2l-.6-.4v.2c-.1.5-.1 1.1-.8 1.5a15 15 0 0 1-8.1 2.3Z"
    fill="#FFD600"
  />
  <path
    d="M3.4 33.9s.9 3.4 4.4 6.8c3.6 3.5 13.4 9.6 28-5-11.7 11.6-27.1 3.5-32.4-1.8Z"
    fill="#E5A820"
  />
  <path
    d="M5.1 35.6c2.5 1.3 5 2.6 9 1.4-3.1-3.1-.5-10.8 5.8-17.1 6.3-6.3 14-8.9 17.1-5.8 1.2-4-.2-6.4-1.4-8.9.4.2-7.1-6-21.1 8-14 13.9-9.2 22.7-9.4 22.4Z"
    fill="#D8991D"
  />
  <path
    d="M37 14.1c1.2-4-.2-6.4-1.4-8.9.3.2-7.1-6-21.1 8-4.2 4.2-6.7 8-8.2 11.1C15 15.5 29 6 37 14.1Z"
    fill="#BA7D13"
  />
  <path
    d="M12.8 12.7C4 21.5.5 32 4.9 36.4c4.4 4.4 14.9.8 23.7-7.9 8.8-8.7 12.2-19.3 7.8-23.6C32.1.5 21.5 4 12.8 12.7Zm22.6 1.7A34.2 34.2 0 0 1 27 27.1c-4 4-8.5 7-12.7 8.4-3.6 1.2-6.6 1-8.1-.5s-1.7-4.5-.5-8.1c1.4-4.2 4.4-8.7 8.4-12.7s8.5-7 12.7-8.4c3.6-1.2 6.6-1 8.1.5 1.6 1.5 1.8 4.5.5 8.1Zm-3.7 22.5-.4-.2c-.2-.2-.1-.5.1-.7.8-.6 1.2-1.8 1.1-3.2l-.2-1.6c-.1-.8-.3-1.6-.3-2.5 0-1.5.6-2.9 1.6-4.1.2-.2.5-.2.7-.1.2.2.2.5.1.7-.8.9-1.3 2.2-1.3 3.4 0 .8.1 1.5.3 2.3l.2 1.7c.2 1.8-.4 3.3-1.5 4.1l-.4.2Z"
    fill="#FFD600"
  />
  <path
    d="M8.5 32c-.5 0-.9-.2-1.2-.6-.2-.4-.3-.9-.1-1.3.2-.5.5-.8.9-.9.3-.1.5.1.6.3.1.3-.1.5-.3.6l-.3.3c-.1.1 0 .3 0 .4.1.2.6.2.7 0 .2-.1.2-.4.2-.7a32.5 32.5 0 0 1-.5-2.6c-.1-1 .2-2.2 1.2-2.8.2-.1.5-.1.6.1a5 5 0 0 1 1.9-4.4l.3-.2c.2-.1.5 0 .7.2.1.2.1.5-.2.7l-.2.1c-.3.2-.6.6-.6 1 0 .2.2.4.3.4h.3l.2-.5.2-1.1.4-1.8c.3-.7.8-1.5 1.6-1.8.4-.2.8-.3 1.2-.2l.2.1.3-1.1c.5-1.2 1.2-2 2.2-2.3.3-.1.7-.1.9.1.1-.5.3-1.2.7-1.7.5-.6 1.4-1 2.2-.6.2.1.3.4.2.6-.1.2-.4.4-.6.3h-.4l-.3.3.1.4.3.3.4-.1.2-.3c.1-.3.3-.4.6-.4.3.1.4.3.4.6-.1.4-.3.7-.7 1-.4.2-.8.3-1.2.2-.4-.1-.7-.4-.9-.7v.5c-.1.6-.3 1.3-.7 1.9-.1.1-.2.3-.5.4h-.7c-.4-.1-.7-.4-.9-.8l-.3.6-.4 1.4-.4 1.3-.4.6c-.3.2-.6.3-1 .2-.4-.1-.7-.3-.9-.7l-.1-.1-.1.2c-.2.5-.2 1-.3 1.6l-.2 1.2c-.1.4-.2.8-.6 1.1-.4.3-.8.3-1.3.1-.3-.1-.5-.3-.7-.6-.2.6-.3 1.3-.2 2l.1.4.2.9c0 .6-.2 1.2-.7 1.5-.3.2-.8.3-1.2.1l-.2-.1.2.9.3 1.5c0 .4 0 .9-.3 1.4-.2.3-.7.6-1.2.6Zm1.9-6.8-.2.3c-.4.2-.6.6-.5 1l.3.4h.3c.2-.1.2-.4.2-.6l-.1-.7c.1-.2.1-.3 0-.4Zm5.4-7-.2.3.1.4.3.2h.2l.1-.2.2-.8h-.2l-.5.1Zm3.8-3.4c-.2 0-.4.1-.5.3-.1.2.1.5.3.5l.4-.9c0 .2-.1.2-.2.1Z"
    fill="#FFC107"
  />
  <path
    d="m11 31.2-.4-.2a.5.5 0 0 1 .2-.7c.3-.2.5-.5.5-1 .1-.5 0-.9-.2-1.4l-.2-1a19 19 0 0 1-.6-3.3c-.1-1.2 0-3 1-4.4.2-.2.5-.3.7-.1.2.2.3.5.1.7-.9 1.2-.9 2.7-.8 3.8l.6 3.1.2 1 .2 1.8c-.1.8-.5 1.4-1 1.7H11Z"
    fill="#FFC107"
  />
</svg>
