<svg xmlns="http://www.w3.org/2000/svg" width="426" height="48" fill="none">
  <path
    fill="#643322"
    d="M.3 20.7h85v9H.3zM.3 38.5h85v9H.3zM85.3 29.7h85v9h-85zM170.3 20.8h85v9h-85zM170.3 38.6h85v9h-85zM340.3 20.9h85v9h-85zM340.3 38.8h85v9h-85zM255.3 29.8h85v9h-85zM91.9 16.5c-1 0-2-.2-2.7-.7a6 6 0 0 1-1.9-1.8c-.5-.8-.9-1.7-1.1-2.6A11.4 11.4 0 0 1 87.3 3a6 6 0 0 1 2-2C90 .6 91 .4 92.2.4c1 0 2 .2 2.7.7.7.4 1.4 1 1.8 1.9.5.7 1 1.6 1.2 2.5a10.3 10.3 0 0 1 0 5.6c-.3 1-.6 1.9-1.2 2.7a5.4 5.4 0 0 1-4.8 2.7Zm.4-1.2c.5 0 .9-.3 1.2-1 .3-.6.5-1.4.6-2.4a22.3 22.3 0 0 0-.4-8 5 5 0 0 0-.8-1.7c-.3-.4-.7-.6-1.1-.6-.5 0-1 .3-1.2 1a8 8 0 0 0-.7 2.4 24.4 24.4 0 0 0 .5 8c.2.7.4 1.3.8 1.7.3.4.6.6 1 .6ZM75.2 17.1a5 5 0 0 1-.8 0c-.3-.1-.4-.2-.4-.4s0-.3.3-.4l.7-.1a8 8 0 0 0 2.6-.8c.7-.4 1.3-.9 1.7-1.4.4-.6.7-1.1.7-1.7 0-.6-.2-1.1-.5-1.6a4 4 0 0 0-1.4-1.2c-.7-.4-1.5-.8-2.6-1l-1.2-.6c-.2-.2-.3-.5-.3-.8 0-.3 0-.6.2-1a78.8 78.8 0 0 1 .9-3.5c0-.5.2-.8.5-1 .2-.1.4-.3.7-.3l1.3-.2a140.5 140.5 0 0 1 4.7-.5c.1.1.2.2.1.4 0 .2 0 .5-.2.9l-.4.8a2 2 0 0 1-.7 1 2 2 0 0 1-1 .3 47.5 47.5 0 0 1-4 .2l-.4.1-.1.3v.5h.2l2.4.7 2 .8c1 .5 1.9 1.2 2.3 2 .5.8.7 1.6.7 2.5 0 1-.2 1.8-.8 2.7a6.3 6.3 0 0 1-3.5 2.6 12 12 0 0 1-3.7.7ZM185.6 16.5c-1 0-2-.2-2.7-.7A6 6 0 0 1 181 14 11.4 11.4 0 0 1 181 3a6 6 0 0 1 2-2c.8-.5 1.8-.7 3-.7 1 0 1.8.2 2.6.7.8.4 1.4 1 1.9 1.9.5.7.8 1.6 1 2.5a10.3 10.3 0 0 1 0 5.6c-.1 1-.5 1.9-1 2.7a5.4 5.4 0 0 1-4.8 2.7Zm.4-1.2c.5 0 .9-.3 1.2-1 .3-.6.5-1.4.7-2.4a22.3 22.3 0 0 0-.5-8c-.2-.8-.4-1.3-.8-1.7-.3-.4-.7-.6-1-.6-.6 0-1 .3-1.3 1a8 8 0 0 0-.6 2.4 24.3 24.3 0 0 0 .4 8c.2.7.5 1.3.8 1.7.3.4.7.6 1 .6ZM172.1 16.5c-1 0-2-.2-2.7-.7a6 6 0 0 1-1.9-1.8 11.4 11.4 0 0 1 0-10.9 6 6 0 0 1 2-2c.8-.5 1.8-.7 3-.7 1 0 1.8.2 2.6.7.8.4 1.4 1 1.9 1.9.5.7.8 1.6 1 2.5a10.3 10.3 0 0 1 0 5.6c-.1 1-.5 1.9-1 2.7a5.4 5.4 0 0 1-4.8 2.7Zm.4-1.2c.5 0 .9-.3 1.2-1 .3-.6.5-1.4.7-2.4a22.3 22.3 0 0 0-.5-8c-.2-.8-.4-1.3-.8-1.7-.3-.4-.7-.6-1-.6-.6 0-1 .3-1.3 1a8 8 0 0 0-.6 2.4 24.3 24.3 0 0 0 .4 8c.2.7.5 1.3.8 1.7.3.4.7.6 1 .6ZM155 16.2h-.3a.3.3 0 0 1-.2-.3c0-.3.2-.5.5-.6l1.1-.3c.4-.1.6-.3.8-.5.2-.2.3-.4.3-.8v-9c0-.3-.1-.7-.4-.9l-.8-.4-1-.3c-.1 0-.3 0-.4-.2-.2 0-.2-.2-.2-.4s0-.4.2-.5l.6-.2a12.2 12.2 0 0 0 5.3-1.5H161.1l.2.2-.1.8v12.4c0 .3 0 .6.2.8l.9.4a118.5 118.5 0 0 0 1.5.6l.2.3c0 .3-.2.4-.4.4a48.7 48.7 0 0 1-4.4 0 43.5 43.5 0 0 0-4.2 0ZM275.4 16.5c-1 0-2-.2-2.7-.7a6 6 0 0 1-1.9-1.8c-.5-.8-.9-1.7-1.1-2.6a11.4 11.4 0 0 1 1.1-8.3 6 6 0 0 1 2-2c.8-.5 1.8-.7 2.9-.7 1 0 2 .2 2.7.7.7.4 1.4 1 1.8 1.9.5.7 1 1.6 1.2 2.5a10.3 10.3 0 0 1 0 5.6c-.3 1-.6 1.9-1.2 2.7a5.4 5.4 0 0 1-4.9 2.7Zm.4-1.2c.5 0 .9-.3 1.2-1 .3-.6.5-1.4.6-2.4a22.3 22.3 0 0 0-.4-8c-.2-.8-.5-1.3-.8-1.7-.3-.4-.7-.6-1.1-.6-.5 0-1 .3-1.2 1a8 8 0 0 0-.7 2.4 24.3 24.3 0 0 0 .5 8c.2.7.5 1.3.8 1.7.3.4.7.6 1 .6ZM258.7 17.1a5 5 0 0 1-.8 0c-.3-.1-.4-.2-.4-.4s0-.3.3-.4l.7-.1a8 8 0 0 0 2.6-.8c.7-.4 1.3-.9 1.7-1.4.4-.6.7-1.1.7-1.7 0-.6-.2-1.1-.5-1.6a4 4 0 0 0-1.4-1.2c-.7-.4-1.5-.8-2.6-1l-1.2-.6c-.2-.2-.3-.5-.3-.8 0-.3 0-.6.2-1a76.3 76.3 0 0 1 .9-3.5c0-.5.2-.8.5-1 .2-.1.4-.3.7-.3l1.3-.2a137.8 137.8 0 0 1 4.7-.5c.1.1.2.2.1.4 0 .2 0 .5-.2.9l-.4.8a2 2 0 0 1-.7 1 2 2 0 0 1-1 .3 47.8 47.8 0 0 1-4 .2l-.4.1-.1.3v.5h.2l2.4.7 2 .8c1 .5 1.9 1.2 2.3 2 .5.8.7 1.6.7 2.5 0 1-.2 1.8-.8 2.7a6.3 6.3 0 0 1-3.5 2.6 12 12 0 0 1-3.7.7ZM244.8 16.2h-.3a.3.3 0 0 1-.2-.3c0-.3.2-.5.5-.6l1.1-.3.8-.5.2-.8v-9c0-.3 0-.7-.3-.9l-.8-.4-1-.3c-.1 0-.3 0-.4-.2-.2 0-.3-.2-.3-.4s.1-.4.3-.5l.5-.2a12.2 12.2 0 0 0 5.4-1.5H251l.1.2v.8l-.1 1v11.4c0 .3.1.6.3.8l.9.4a118.5 118.5 0 0 0 1.5.6l.1.3c0 .3 0 .4-.4.4h-3a43.7 43.7 0 0 0-5.5 0ZM355.6 16.5c-1 0-2-.2-2.7-.7A6 6 0 0 1 351 14 11.4 11.4 0 0 1 351 3a6 6 0 0 1 2-2c.8-.5 1.8-.7 3-.7 1 0 1.8.2 2.6.7.8.4 1.4 1 1.9 1.9.5.7.8 1.6 1 2.5a10.3 10.3 0 0 1 0 5.6c-.1 1-.5 1.9-1 2.7a5.4 5.4 0 0 1-4.8 2.7Zm.4-1.2c.5 0 .9-.3 1.2-1 .3-.6.5-1.4.7-2.4a22.3 22.3 0 0 0-.5-8c-.2-.8-.4-1.3-.8-1.7-.3-.4-.7-.6-1-.6-.6 0-1 .3-1.3 1a8 8 0 0 0-.6 2.4 24.3 24.3 0 0 0 .4 8c.2.7.5 1.3.8 1.7.3.4.7.6 1 .6ZM342.1 16.5c-1 0-2-.2-2.7-.7a6 6 0 0 1-1.9-1.8 11.4 11.4 0 0 1 0-10.9 6 6 0 0 1 2-2c.8-.5 1.8-.7 3-.7 1 0 1.8.2 2.6.7.8.4 1.4 1 1.9 1.9.5.7.8 1.6 1 2.5a10.3 10.3 0 0 1 0 5.6c-.1 1-.5 1.9-1 2.7a5.4 5.4 0 0 1-4.9 2.7Zm.4-1.2c.5 0 .9-.3 1.2-1 .3-.6.5-1.4.7-2.4a22.3 22.3 0 0 0-.5-8c-.2-.8-.4-1.3-.8-1.7-.3-.4-.7-.6-1-.6-.6 0-1 .3-1.3 1a8 8 0 0 0-.6 2.4 24.3 24.3 0 0 0 .4 8c.2.7.5 1.3.8 1.7.3.4.7.6 1 .6ZM333.4 16.3a28 28 0 0 1-2.2 0l-1.8-.1h-2.8a29.5 29.5 0 0 1-2.7 0l-.2-.4v-.3l.3-.3 3.5-4c.9-1 1.5-2 2-2.9.4-1 .6-2 .6-3.1a3 3 0 0 0-.5-1.7c-.3-.5-.8-.7-1.4-.7-.6 0-1.1.1-1.6.5a8.3 8.3 0 0 0-1.7 1.3l-.5.2-.3-.1v-.4c0-.3 0-.7.4-1 .2-.5.6-1 1.1-1.4.5-.4 1.1-.8 1.8-1 .6-.3 1.3-.5 2-.5a3.8 3.8 0 0 1 3.6 2.1c.3.7.5 1.4.5 2.1 0 .5-.1 1-.4 1.6a9.9 9.9 0 0 1-2.6 3.8 851.3 851.3 0 0 0-3.4 3.2l.4.2a17.1 17.1 0 0 0 3.3 0h1c.4 0 .7-.2 1-.3.3 0 .5-.3.7-.5.3-.2.4-.5.6-.8l.3-.4.4-.1.3.1v.4a42.2 42.2 0 0 0-1.4 4.3l-.3.2Z"
  />
</svg>
